<svg version="1.1" xmlns="http://www.w3.org/2000/svg" width="1080" height="1080">
<path d="M0 0 C356.4 0 712.8 0 1080 0 C1080 356.4 1080 712.8 1080 1080 C723.6 1080 367.2 1080 0 1080 C0 723.6 0 367.2 0 0 Z " fill="#FEFEFE" transform="translate(0,0)"/>
<path d="M0 0 C356.4 0 712.8 0 1080 0 C1080 356.4 1080 712.8 1080 1080 C723.6 1080 367.2 1080 0 1080 C0 723.6 0 367.2 0 0 Z M507 73 C506.18281494 73.10032532 505.36562988 73.20065063 504.52368164 73.30401611 C498.71348376 74.02779506 492.91776388 74.83609991 487.125 75.6875 C486.24868927 75.81561066 485.37237854 75.94372131 484.46951294 76.07571411 C391.50387341 89.80024765 300.55681444 131.94450236 231.80859375 196.40234375 C229.68724473 198.36437031 227.54417217 200.25403002 225.3515625 202.1328125 C220.48660424 206.37221873 215.93216959 210.91735481 211.3815918 215.48803711 C209.93974779 216.93524385 208.49262884 218.37702026 207.04492188 219.81835938 C201.81751488 225.04168193 196.77939176 230.36314984 192 236 C191.12296447 237.00960883 190.24539671 238.01875568 189.3671875 239.02734375 C182.47512184 247.07528876 175.99547347 255.38978137 169.62304688 263.85351562 C168.04703404 265.93779734 166.45557208 268.00927734 164.859375 270.078125 C158.46645948 278.40764005 152.68127463 286.94385039 147.25634766 295.93164062 C145.97339609 298.04379874 144.66747019 300.14015437 143.35546875 302.234375 C94.22220875 380.97312039 70.87802561 469.54822724 70.6875 562 C70.68488159 563.22589844 70.68226318 564.45179688 70.67956543 565.71484375 C70.67485243 586.41970949 71.867594 606.54241211 75 627 C75.1654834 628.12583496 75.3309668 629.25166992 75.50146484 630.41162109 C76.52504391 637.30330276 77.71446847 644.15284076 79 651 C79.18143555 651.99435059 79.36287109 652.98870117 79.54980469 654.01318359 C86.4347939 691.53696732 98.45366116 727.21952788 114 762 C114.34981934 762.79067871 114.69963867 763.58135742 115.06005859 764.39599609 C132.87393162 804.43960039 157.71166831 841.64988302 186 875 C186.57169922 875.67611328 187.14339844 876.35222656 187.73242188 877.04882812 C193.59407985 883.96172555 199.51140315 890.70107537 206.01953125 897.01953125 C207.97814856 898.97814856 209.77204378 901.01266401 211.5625 903.125 C214.40107969 906.4312633 217.45503016 909.21714015 220.77734375 912.02734375 C223.41224964 914.36588061 225.84965599 916.85610264 228.3125 919.375 C233.55218576 924.6921506 239.16285692 929.3571573 245 934 C246.20765954 934.99505764 247.41327191 935.99260332 248.6171875 936.9921875 C311.79911454 989.30179653 382.43647054 1021.80433982 464 1031 C465.45986328 1031.16991455 465.45986328 1031.16991455 466.94921875 1031.34326172 C479.94229081 1032.8441038 492.92600474 1033.66800517 506 1034 C507.19850586 1034.03399902 508.39701172 1034.06799805 509.63183594 1034.10302734 C592.04671753 1036.14013295 674.11424417 1017.45989106 748 981 C749.00321289 980.50532227 750.00642578 980.01064453 751.04003906 979.50097656 C792.30591712 958.9572388 830.44551974 932.31360139 864.48828125 901.265625 C865.87325166 900.01635154 867.26476655 898.77379803 868.68286133 897.56225586 C874.24539231 892.79528218 879.45234987 887.70084493 884.6184082 882.51196289 C886.06025221 881.06475615 887.50737116 879.62297974 888.95507812 878.18164062 C894.18280889 872.95805091 899.21739842 867.63437107 904 862 C904.96129938 860.89371357 905.92350705 859.78821559 906.88671875 858.68359375 C950.36166481 808.42287568 984.27082615 750.85595228 1006 688 C1006.41878418 686.79682129 1006.83756836 685.59364258 1007.26904297 684.35400391 C1014.21733667 664.19842722 1019.52999677 643.83910596 1024 623 C1024.33620361 621.43354736 1024.33620361 621.43354736 1024.67919922 619.83544922 C1038.80658753 552.77360183 1038.36255139 479.20968509 1022.59375 412.52490234 C1022.03326675 410.14146576 1021.4967203 407.75409989 1020.96875 405.36328125 C1009.62448508 354.47631265 981.0677017 307.30327509 950 266 C949.38608398 265.17556396 949.38608398 265.17556396 948.75976562 264.33447266 C939.26174391 251.59014642 928.71397052 239.72916908 918 228 C917.5373877 227.49227051 917.07477539 226.98454102 916.59814453 226.46142578 C908.48969882 217.57195178 900.36068497 208.76535952 891.20703125 200.9296875 C889.05412712 199.0473253 886.9638778 197.10700729 884.87695312 195.15209961 C879.03307713 189.69673878 872.94777665 184.68675479 866.6171875 179.80859375 C864.1949086 177.9412298 861.80826318 176.03953197 859.4453125 174.09765625 C849.70152737 166.10471782 839.49597173 158.9680615 829 152 C828.28585937 151.52175781 827.57171875 151.04351562 826.8359375 150.55078125 C815.21784364 142.78362862 803.20771726 135.79540418 791 129 C790.3488623 128.63310059 789.69772461 128.26620117 789.02685547 127.88818359 C758.8105996 110.89516446 726.07347386 99.05911493 693 89 C692.14905762 88.73993164 691.29811523 88.47986328 690.42138672 88.21191406 C648.68446718 75.6078014 604.52128543 70.59388384 561.06005859 70.73925781 C557.239098 70.75003074 553.41860326 70.7392583 549.59765625 70.7265625 C535.27932605 70.71714657 521.2102165 71.22247792 507 73 Z " fill="#01C2FF" transform="translate(0,0)"/>
<path d="M0 0 C176.22 0 352.44 0 534 0 C534 356.4 534 712.8 534 1080 C177.6 1080 -178.8 1080 -546 1080 C-546 903.78 -546 727.56 -546 546 C-545.67 546 -545.34 546 -545 546 C-544.87322876 547.73056641 -544.87322876 547.73056641 -544.74389648 549.49609375 C-542.16287946 584.04222155 -538.22363789 618.50754894 -529 652 C-528.80680176 652.71591309 -528.61360352 653.43182617 -528.41455078 654.16943359 C-520.78511165 682.05269807 -510.89544186 709.66980358 -499 736 C-498.65163086 736.78487793 -498.30326172 737.56975586 -497.94433594 738.37841797 C-481.45530597 775.45826739 -458.98661954 810.11624747 -434 842 C-433.33355469 842.85078125 -432.66710937 843.7015625 -431.98046875 844.578125 C-418.58519142 861.49273181 -404.02715847 877.13109146 -388.76953125 892.36328125 C-387.32453618 893.80895196 -385.87968942 895.25477091 -384.4349823 896.70072937 C-381.42873258 899.70844194 -378.42071104 902.71436769 -375.41137695 905.71899414 C-371.57182848 909.55282551 -367.73681615 913.39115819 -363.90311146 917.2308321 C-360.9288097 920.20876026 -357.95211455 923.18428685 -354.97470665 926.15910912 C-353.55991109 927.57324223 -352.14584512 928.98810569 -350.73255348 930.40374184 C-340.65223715 940.50806326 -340.65223715 940.50806326 -330 950 C-328.83060917 951.03207783 -327.66362439 952.06689384 -326.5 953.10546875 C-318.32792883 960.32627515 -309.90554904 967.05148009 -301.09326172 973.47314453 C-298.95270746 975.03449586 -296.82191871 976.60857566 -294.69140625 978.18359375 C-283.74252871 986.23313386 -272.50497142 993.76939065 -261 1001 C-260.19868652 1001.5038623 -259.39737305 1002.00772461 -258.57177734 1002.52685547 C-245.66845792 1010.58127363 -232.34302709 1017.69968519 -218.78369141 1024.58251953 C-216.41411545 1025.78912872 -214.05446255 1027.01185268 -211.69921875 1028.24609375 C-194.6352827 1037.11568114 -176.66486805 1043.90319266 -158.5625 1050.3125 C-157.86296204 1050.56116821 -157.16342407 1050.80983643 -156.44268799 1051.06604004 C-118.82808096 1064.39015985 -79.61782317 1072.51212119 -40 1077 C-39.26916702 1077.08743469 -38.53833405 1077.17486938 -37.78535461 1077.26495361 C-28.93695342 1078.21078907 -20.09281645 1078.14524872 -11.20703125 1078.1328125 C-9.48988328 1078.13348808 -7.77273541 1078.13446021 -6.05558777 1078.13571167 C-2.46925947 1078.13717868 1.11704378 1078.13506766 4.70336914 1078.13037109 C9.25388956 1078.12469612 13.80435068 1078.12794503 18.35486889 1078.13394356 C21.89922006 1078.13759478 25.44355769 1078.13638952 28.98790932 1078.13381577 C30.66329264 1078.13315791 32.33867728 1078.13393399 34.01405907 1078.13629532 C49.57429103 1078.15340907 64.87533795 1077.36407938 80.3125 1075.25 C81.59721191 1075.0751709 82.88192383 1074.9003418 84.20556641 1074.72021484 C169.69495576 1062.87187913 251.93181677 1029.54894215 328 973 C328.61746094 972.53851562 329.23492188 972.07703125 329.87109375 971.6015625 C342.20858236 962.36942817 353.73743385 952.29095222 364.99609375 941.78515625 C367.56207692 939.39374075 370.17895129 937.06699528 372.8125 934.75 C377.4152886 930.62258137 381.80879877 926.29965513 386.1875 921.9375 C386.85305908 921.2765332 387.51861816 920.61556641 388.2043457 919.93457031 C392.67209797 915.45293097 396.88233735 910.80363187 401 906 C401.95026584 904.90602845 402.90077305 903.8122665 403.8515625 902.71875 C446.88426042 852.89383919 481.00065086 796.31826877 502.89160156 734.14306641 C503.97088352 731.0825651 505.07282993 728.03108842 506.1796875 724.98046875 C512.76227501 706.68274353 517.64588614 688.19010957 521.6875 669.1875 C521.83220734 668.50770081 521.97691467 667.82790161 522.12600708 667.12750244 C529.33237997 633.07402967 532.71495518 599.52067765 532.57641602 564.72314453 C532.56271147 561.16807145 532.56954881 557.61407532 532.59692383 554.05908203 C532.8910777 515.66957241 528.50531988 478.42246923 520 441 C519.73493652 439.82937012 519.46987305 438.65874023 519.19677734 437.45263672 C505.90826619 380.07459514 481.73597964 323.93644093 449 275 C448.3930127 274.08283203 447.78602539 273.16566406 447.16064453 272.22070312 C438.64396287 259.3691835 429.66021791 247.01394507 420 235 C419.55930176 234.44747559 419.11860352 233.89495117 418.66455078 233.32568359 C414.00068392 227.48142088 409.14287312 221.85238824 404.109375 216.32421875 C402.25373343 214.27957665 400.43243624 212.21215851 398.625 210.125 C391.74992015 202.25650264 384.6832871 194.59383752 377.3125 187.1875 C376.54752197 186.41563354 376.54752197 186.41563354 375.76708984 185.62817383 C373.04478989 182.91674221 370.25465115 180.33688029 367.3347168 177.83911133 C362.8254176 173.90679466 358.6118086 169.7212828 354.40625 165.46875 C353.61528931 164.67400269 352.82432861 163.87925537 352.00939941 163.0604248 C348.65981427 159.69464452 345.3162673 156.32288952 341.97216797 152.95166016 C339.51479061 150.47609773 337.05433942 148.00361917 334.59375 145.53125 C333.85080688 144.78000854 333.10786377 144.02876709 332.34240723 143.25476074 C327.73078195 138.62181063 322.966471 134.24865722 318 130 C316.91671884 129.0509039 315.83446944 128.10062691 314.75390625 127.1484375 C305.81021657 119.34791575 296.50488189 112.10142521 287 105 C286.02281006 104.26668457 286.02281006 104.26668457 285.02587891 103.51855469 C243.14909757 72.15106007 196.64415491 47.65653008 147.35888672 30.19091797 C145.16759581 29.41397968 142.97896296 28.6294912 140.79345703 27.83642578 C99.79089414 13.00059644 56.37466873 5.28659701 13 2 C11.11788818 1.85425537 11.11788818 1.85425537 9.19775391 1.70556641 C6.13198702 1.46833691 3.06607705 1.2331801 0 1 C0 0.67 0 0.34 0 0 Z " fill="#FEFEFF" transform="translate(546,0)"/>
<path d="M0 0 C164.67 0 329.34 0 499 0 C499 0.33 499 0.66 499 1 C497.97156982 1.06469482 496.94313965 1.12938965 495.88354492 1.19604492 C464.02741934 3.23630792 432.70500373 6.16338212 401.74804688 14.29882812 C399.1375552 14.9649024 396.52276438 15.5668227 393.890625 16.140625 C359.5961288 23.65622025 326.57583375 36.87225858 295 52 C293.97229492 52.48662109 292.94458984 52.97324219 291.88574219 53.47460938 C269.07881427 64.32035239 247.26288906 77.04599443 226.72509766 91.76464844 C224.95306302 93.03361182 223.17101609 94.28741274 221.38671875 95.5390625 C209.86941555 103.64794472 198.80116686 112.19852969 188.10546875 121.36328125 C185.34747097 123.72110229 182.52553631 125.98890381 179.6875 128.25 C168.46290084 137.41756584 158.19669316 147.72025448 147.9375 157.9375 C146.75994141 159.10804932 146.75994141 159.10804932 145.55859375 160.30224609 C140.83318595 165.04080251 136.3581426 169.92390695 132 175 C130.97840913 176.15658164 129.9550168 177.31157499 128.9296875 178.46484375 C121.44607873 186.94472994 114.43658435 195.69874123 107.67236328 204.76123047 C105.96545981 207.04623847 104.24653064 209.32188081 102.52734375 211.59765625 C54.01509263 276.19317554 21.9153884 352.55627009 8 432 C7.85079102 432.83370117 7.70158203 433.66740234 7.54785156 434.52636719 C4.29638285 452.86465071 2.63567676 471.4592055 1 490 C0.67 490 0.34 490 0 490 C0 328.3 0 166.6 0 0 Z " fill="#FEFEFF" transform="translate(0,0)"/>
<path d="M0 0 C1.24140747 0.00215515 2.48281494 0.0043103 3.76184082 0.00653076 C54.1329397 0.14615008 103.88540095 6.60462302 151.91943359 22.25048828 C155.20774105 23.31907766 158.50359648 24.36151059 161.80078125 25.40234375 C214.35593647 42.20862017 262.89989545 68.21651237 307.375 100.6875 C308.57890381 101.56233032 308.57890381 101.56233032 309.80712891 102.45483398 C313.93542265 105.4968962 317.68452604 108.56382647 321.1875 112.3125 C316.97358906 110.79454334 313.29142484 108.65796116 309.5 106.3125 C265.39078235 79.5309339 217.15371231 58.73123071 166.83642578 46.94140625 C164.51434454 46.39009922 162.20781072 45.80391723 159.90234375 45.1875 C135.68521466 38.7763469 111.0748977 35.64959479 86.1875 33.3125 C85.31380768 33.22473801 84.44011536 33.13697601 83.53994751 33.04655457 C75.39960152 32.28443672 67.30419615 32.14894795 59.1328125 32.14453125 C57.70051035 32.14130323 56.26820851 32.13793812 54.83590698 32.13444519 C51.84567505 32.12849865 48.85547179 32.12660039 45.86523438 32.12719727 C42.84792024 32.12727811 39.83075928 32.12039579 36.81347656 32.10668945 C19.50403472 32.02936793 2.39901894 32.21976502 -14.8125 34.3125 C-15.58235229 34.40173737 -16.35220459 34.49097473 -17.14538574 34.58291626 C-22.27299827 35.17864952 -27.38775403 35.84744665 -32.5 36.5625 C-33.26087921 36.66788086 -34.02175842 36.77326172 -34.80569458 36.88183594 C-48.32560346 38.77299227 -61.59290741 41.3764352 -74.86230469 44.60253906 C-77.64471972 45.27212388 -80.43241357 45.90491687 -83.2265625 46.5234375 C-143.71883015 60.0686061 -201.9959136 87.01889526 -252.8125 122.3125 C-253.89797119 123.06225098 -253.89797119 123.06225098 -255.00537109 123.82714844 C-268.05386054 132.85829518 -280.62177225 142.32061384 -292.67578125 152.6484375 C-295.61197962 155.1584573 -298.61262519 157.58179015 -301.625 160 C-305.55367422 163.19418295 -309.18339272 166.52304268 -312.66796875 170.1953125 C-314.56130416 172.06450703 -316.50146443 173.79147654 -318.515625 175.52734375 C-322.993966 179.41660629 -327.19357862 183.54587407 -331.375 187.75 C-332.09107422 188.46220703 -332.80714844 189.17441406 -333.54492188 189.90820312 C-338.17383844 194.54554356 -342.55381582 199.33467467 -346.8125 204.3125 C-347.7626469 205.40657485 -348.71314903 206.50034134 -349.6640625 207.59375 C-361.00290204 220.72335813 -371.94871301 234.03273814 -381.8125 248.3125 C-382.30717773 249.02245117 -382.80185547 249.73240234 -383.31152344 250.46386719 C-419.5201016 302.44824433 -448.48768182 359.90554882 -463.20214844 421.79492188 C-463.80082138 424.26432804 -464.44285494 426.71786644 -465.1015625 429.171875 C-470.34426642 448.87493857 -473.52776131 468.97741354 -476.0625 489.1875 C-476.22564697 490.48719727 -476.38879395 491.78689453 -476.55688477 493.12597656 C-478.17214384 506.51913058 -478.97158827 519.8220174 -479.015625 533.31640625 C-479.01845238 534.00655256 -479.02127975 534.69669888 -479.02419281 535.40775871 C-479.03905286 539.07221711 -479.04836087 542.7366376 -479.05273438 546.40112305 C-479.0570817 549.35698035 -479.07084599 552.3125396 -479.09375 555.26831055 C-479.24481219 575.18073736 -478.34161053 594.5323977 -475.8125 614.3125 C-475.6626767 615.50687683 -475.51285339 616.70125366 -475.35848999 617.93182373 C-471.97833542 644.70604544 -467.0924024 671.58782521 -458.8125 697.3125 C-458.51119171 698.25579163 -458.51119171 698.25579163 -458.20379639 699.21813965 C-444.40962289 742.39447559 -427.53497175 784.12840898 -403.28833008 822.59472656 C-401.0973565 826.08608773 -399.17257064 829.39274586 -397.8125 833.3125 C-459.49632592 774.25594815 -494.1563407 670.72049016 -508.8125 565.3125 C-508.94672363 564.13091309 -509.08094727 562.94932617 -509.21923828 561.73193359 C-511.09007144 544.04190357 -511.0119808 526.26824075 -511.0625 508.5 C-511.0679483 507.33502991 -511.07339661 506.17005981 -511.07901001 504.9697876 C-511.15717044 482.50034573 -509.60009615 460.36023226 -506.375 438.125 C-506.25333466 437.27907288 -506.13166931 436.43314575 -506.00631714 435.56158447 C-502.81566638 413.79378124 -497.52199293 392.53947071 -491.8125 371.3125 C-491.4810498 370.07790039 -491.14959961 368.84330078 -490.80810547 367.57128906 C-484.63641754 345.06926664 -475.99145634 322.97318433 -466.02978516 301.89111328 C-464.68714259 299.04695148 -463.36594367 296.19320338 -462.04296875 293.33984375 C-455.30221452 278.92734135 -447.92195647 265.00037461 -439.8125 251.3125 C-439.2747998 250.40483887 -438.73709961 249.49717773 -438.18310547 248.56201172 C-430.6837627 235.99548453 -422.56164442 224.03694269 -413.8125 212.3125 C-412.7561529 210.88307664 -411.70016017 209.45339132 -410.64453125 208.0234375 C-404.90517516 200.2786011 -399.02532816 192.6863112 -392.8125 185.3125 C-392.3803418 184.7954248 -391.94818359 184.27834961 -391.50292969 183.74560547 C-380.25802792 170.30957238 -368.23551324 157.66112663 -355.875 145.25 C-355.09439209 144.46471924 -354.31378418 143.67943848 -353.50952148 142.87036133 C-348.77120995 138.14520194 -343.88832825 133.67041526 -338.8125 129.3125 C-337.65591836 128.29090913 -336.50092501 127.2675168 -335.34765625 126.2421875 C-326.75874691 118.66381031 -317.87091993 111.59739263 -308.70214844 104.73486328 C-307.09448048 103.52475042 -305.50251633 102.29381998 -303.9140625 101.05859375 C-289.35272817 89.80665358 -273.67558217 79.63067414 -257.8125 70.3125 C-257.0915918 69.88582031 -256.37068359 69.45914063 -255.62792969 69.01953125 C-219.50797563 47.71240683 -180.38051079 30.23152737 -139.8125 19.3125 C-138.84151367 19.04727539 -137.87052734 18.78205078 -136.87011719 18.50878906 C-114.87726119 12.52891885 -92.85395686 7.92701948 -70.3125 4.625 C-69.62397949 4.52217712 -68.93545898 4.41935425 -68.22607422 4.31341553 C-45.55587525 0.95935878 -22.89811553 -0.07210365 0 0 Z " fill="#FDFEFF" transform="translate(518.8125,7.6875)"/>
<path d="M0 0 C2.2103651 3.67449584 2.75501386 7.51590478 3.375 11.6875 C3.55844971 12.88886597 3.55844971 12.88886597 3.74560547 14.11450195 C5.00563832 22.62089187 6.06991319 31.1537522 7.125 39.6875 C7.21126648 40.37516449 7.29753296 41.06282898 7.38641357 41.77133179 C9.59785373 59.50007112 10.2348789 77.08194229 10.25 94.9375 C10.25167175 95.98615234 10.25334351 97.03480469 10.25506592 98.11523438 C10.25681946 116.5765581 9.2323531 134.67408295 7 153 C6.83985324 154.36716003 6.67994924 155.73434852 6.52026367 157.1015625 C5.64660265 164.46433394 4.6178421 171.74584747 3.0625 179 C2.70601968 180.71333151 2.35056203 182.42687609 1.99609375 184.140625 C1.73868408 185.3790918 1.73868408 185.3790918 1.47607422 186.64257812 C1.04993341 188.75274 0.65596928 190.86390572 0.28515625 192.984375 C-8.80002381 244.80753226 -29.31639873 295.87030194 -56 341 C-57.03269127 342.76945003 -58.06524518 344.53898023 -59.09765625 346.30859375 C-65.29621318 356.85778335 -71.86506397 367.06122444 -79 377 C-79.54946289 377.76731445 -80.09892578 378.53462891 -80.66503906 379.32519531 C-87.28134623 388.52744052 -94.04285051 397.51585941 -101.4765625 406.07421875 C-103.94681699 408.93833734 -106.32197772 411.86165224 -108.6875 414.8125 C-111.88168295 418.74117422 -115.21054268 422.37089272 -118.8828125 425.85546875 C-120.75200703 427.74880416 -122.47897654 429.68896443 -124.21484375 431.703125 C-128.10410629 436.181466 -132.23337407 440.38107862 -136.4375 444.5625 C-137.14970703 445.27857422 -137.86191406 445.99464844 -138.59570312 446.73242188 C-142.67972924 450.80902923 -146.86233378 454.70766198 -151.23364258 458.47436523 C-153.4082856 460.35264364 -155.51425348 462.30043776 -157.625 464.25 C-163.27327953 469.34469623 -169.22592727 474.00263183 -175.24609375 478.64453125 C-176.89928351 479.92216343 -178.54447136 481.20934159 -180.1875 482.5 C-206.51350655 503.03428511 -235.03554278 520.69488659 -265.15917969 535.11425781 C-267.01255281 536.00604 -268.85396958 536.91961111 -270.6953125 537.8359375 C-280.06585962 542.4348193 -289.68631067 546.38043111 -299.375 550.25 C-300.0168927 550.50648315 -300.6587854 550.76296631 -301.32012939 551.02722168 C-312.52389707 555.49296645 -323.68223351 559.77654825 -335.3125 563 C-337.17064401 563.52057966 -339.02871703 564.04141275 -340.88671875 564.5625 C-341.77278809 564.81 -342.65885742 565.0575 -343.57177734 565.3125 C-346.60120617 566.17021884 -349.61089671 567.09008203 -352.625 568 C-369.76318001 572.87042214 -387.27844882 576.43457426 -404.95507812 578.6171875 C-407.84704856 578.9807707 -410.73549363 579.36649949 -413.62376404 579.75827026 C-429.73452758 581.93884298 -445.72375437 583.78535192 -462 584 C-463.3092041 584.02046387 -464.6184082 584.04092773 -465.96728516 584.06201172 C-500.68038084 584.55937998 -534.79034687 582.09035491 -569 576 C-569 575.67 -569 575.34 -569 575 C-563.4624781 574.8851666 -558.00730967 575.04208863 -552.48583984 575.4934082 C-545.43196855 576.01352979 -538.42250518 576.16121379 -531.3515625 576.16796875 C-529.4690126 576.17296135 -529.4690126 576.17296135 -527.5484314 576.17805481 C-524.90810508 576.18308168 -522.2677725 576.18546446 -519.62744141 576.18530273 C-515.66951822 576.18518216 -511.71178388 576.20564034 -507.75390625 576.22460938 C-487.60775641 576.26974444 -467.69584756 575.26139596 -447.75 572.3125 C-446.62142578 572.14806396 -445.49285156 571.98362793 -444.33007812 571.81420898 C-428.45671768 569.41333116 -412.71307711 566.27421839 -397 563 C-396.02160156 562.79826172 -395.04320312 562.59652344 -394.03515625 562.38867188 C-328.22327891 548.47680077 -263.67764943 515.80344452 -210 476 C-208.59130758 474.96592546 -207.18245597 473.93206773 -205.7734375 472.8984375 C-197.22026164 466.5896474 -189.01737477 459.97500516 -181 453 C-180.26394531 452.36449219 -179.52789063 451.72898437 -178.76953125 451.07421875 C-176.83533453 449.39482639 -174.91472557 447.70154762 -173 446 C-172.28070312 445.36191406 -171.56140625 444.72382812 -170.8203125 444.06640625 C-165.59407302 439.39706114 -160.4419824 434.6500703 -155.3125 429.875 C-154.6949585 429.30128662 -154.07741699 428.72757324 -153.44116211 428.13647461 C-147.3347841 422.43463293 -141.46055996 416.62207412 -136.0078125 410.2890625 C-134.05667425 408.06461305 -132.05889875 405.88889125 -130.04614258 403.72021484 C-124.44013352 397.67408447 -119.15337308 391.43958685 -114 385 C-113.07759625 383.86916043 -112.15437804 382.73898485 -111.23046875 381.609375 C-99.14810693 366.77008528 -88.10609942 351.24729781 -78 335 C-77.44086914 334.10490723 -76.88173828 333.20981445 -76.30566406 332.28759766 C-32.60999015 261.97340212 -6.7031044 183.30970922 1 101 C1.12720177 99.71980988 1.12720177 99.71980988 1.25697327 98.41375732 C1.99061968 90.51554836 2.16092866 82.67924598 2.16796875 74.75 C2.17119728 73.40258756 2.17456242 72.05517545 2.17805481 70.70776367 C2.18399646 67.89745271 2.18590006 65.08717225 2.18530273 62.27685547 C2.1852218 59.4398761 2.19211975 56.60305932 2.20581055 53.76611328 C2.27587624 39.05314446 2.25521271 24.46241673 0.4309082 9.8359375 C0.05731981 6.51025995 -0.08332656 3.34096693 0 0 Z " fill="#FBFDFF" transform="translate(1038,464)"/>
<path d="M0 0 C1.10875488 0.19964355 2.21750977 0.39928711 3.35986328 0.60498047 C12.59967879 2.28107399 21.80485374 4.09557794 31 6 C32.76512939 6.36254883 32.76512939 6.36254883 34.56591797 6.73242188 C113.00982656 23.21401747 188.89517175 62.59851358 250 114 C250.53157715 114.44666016 251.0631543 114.89332031 251.61083984 115.35351562 C267.19190338 128.47908525 281.66964359 142.52176723 296 157 C292.10086292 157 291.56946555 155.92629702 288.8125 153.25 C281.97353314 146.91579046 274.52046192 141.49239748 267 136 C265.86788086 135.17048828 265.86788086 135.17048828 264.71289062 134.32421875 C256.43266868 128.26551977 248.14504483 122.28256815 239.48046875 116.78125 C236.67416559 114.76601498 234.44229673 112.44229673 232 110 C229.62345491 108.04196822 227.16280632 106.20586218 224.6875 104.375 C223.98455811 103.85284912 223.28161621 103.33069824 222.55737305 102.79272461 C169.68020077 63.75521352 110.38833884 36.01200286 47 19 C46.21238281 18.78649902 45.42476562 18.57299805 44.61328125 18.35302734 C40.09697648 17.13815831 35.55958492 16.03795429 31 15 C29.79899658 14.7205957 29.79899658 14.7205957 28.57373047 14.43554688 C15.70039023 11.47375008 2.75120741 9.22677045 -10.3125 7.3125 C-10.99325592 7.20994904 -11.67401184 7.10739807 -12.37539673 7.0017395 C-35.81537037 3.50152182 -59.39113877 2.61442789 -83.0625 2.6875 C-84.30080566 2.68932281 -85.53911133 2.69114563 -86.81494141 2.69302368 C-106.71533974 2.74210954 -126.25637517 3.43605531 -146 6 C-147.37710715 6.17340922 -148.75422324 6.3467475 -150.13134766 6.52001953 C-168.63789607 8.88541151 -186.6600167 12.44305286 -204.72802734 17.15332031 C-207.76712875 17.93974052 -210.81222185 18.69126759 -213.86328125 19.4296875 C-281.18216668 35.94883252 -346.38264183 69.20781218 -400 113 C-400.92296875 113.7425 -401.8459375 114.485 -402.796875 115.25 C-419.14608787 128.48057689 -434.59787946 142.53708638 -449.5 157.375 C-450.2415332 158.11186035 -450.98306641 158.8487207 -451.74707031 159.60791016 C-455.81758894 163.69039549 -459.71360653 167.8682765 -463.4765625 172.23583984 C-465.35395775 174.40988761 -467.30113597 176.51500942 -469.25 178.625 C-474.29706791 184.22622233 -478.92262878 190.11273148 -483.52001953 196.08300781 C-485.01384619 198.01793472 -486.5198226 199.94291794 -488.02734375 201.8671875 C-502.9222236 220.9795306 -516.18472733 240.84618383 -528 262 C-528.5475293 262.97018066 -529.09505859 263.94036133 -529.65917969 264.93994141 C-551.33652828 303.45100551 -568.08167126 344.55915447 -578.8125 387.4375 C-579.08734222 388.53300171 -579.08734222 388.53300171 -579.36773682 389.65063477 C-583.80590734 407.46764545 -587.256359 425.39213595 -589.81030273 443.57421875 C-590.18952629 446.26437418 -590.58156962 448.95245728 -590.97460938 451.640625 C-593.73593834 470.82114123 -594.24027781 489.76976214 -594.25 509.125 C-594.25067474 510.33731293 -594.25134949 511.54962585 -594.25204468 512.79867554 C-594.18649534 587.3490998 -578.93481618 658.68750034 -549 727 C-548.63455078 727.83611816 -548.26910156 728.67223633 -547.89257812 729.53369141 C-542.34863354 742.07781164 -535.70257541 754.04578109 -529 766 C-528.60651367 766.71027344 -528.21302734 767.42054688 -527.80761719 768.15234375 C-514.89464973 791.37958708 -499.25582996 817.86299921 -480.328125 836.65234375 C-477.65178225 839.35113904 -475.7011394 842.30470655 -473.6875 845.5 C-469.36918292 852.16170129 -464.69796595 858.50817449 -459.875 864.8125 C-459.21846436 865.67101562 -458.56192871 866.52953125 -457.88549805 867.4140625 C-451.45486053 875.7752559 -444.92227953 884.03937854 -438 892 C-438.33 892.66 -438.66 893.32 -439 894 C-443.25675888 889.79322565 -447.5064851 885.57950734 -451.75024414 881.35961914 C-453.19045656 879.92937359 -454.63246976 878.50093873 -456.07641602 877.07446289 C-464.20958854 869.03714058 -471.95057416 861.01679861 -479 852 C-479.9106791 850.92107449 -480.82861648 849.84817621 -481.7578125 848.78515625 C-490.03987643 839.25941605 -497.55624039 829.18812729 -505 819 C-505.87229248 817.81108154 -505.87229248 817.81108154 -506.76220703 816.59814453 C-521.98670413 795.73236931 -535.18446661 773.53977922 -546.76123047 750.46289062 C-547.87805566 748.24244668 -549.01397687 746.03351371 -550.16015625 743.828125 C-560.10408122 724.56708488 -567.83930174 704.52935925 -574.92626953 684.06835938 C-575.82938826 681.48755079 -576.75812299 678.92063831 -577.71484375 676.359375 C-585.41595973 655.65579418 -590.18477924 634.01720112 -594.35205078 612.36621094 C-594.75374435 610.27934172 -595.16225667 608.19375739 -595.58154297 606.11035156 C-601.85851625 574.7425267 -603.37820288 542.53211064 -603.375 510.625 C-603.37681274 509.46137939 -603.37862549 508.29775879 -603.38049316 507.09887695 C-603.37650458 484.56339184 -601.47869681 462.47667014 -598.25 440.1875 C-598.12027802 439.28345428 -597.99055603 438.37940857 -597.85690308 437.44796753 C-595.83192451 423.44556733 -593.33783424 409.71292342 -589.77539062 396.00878906 C-588.96784955 392.87524492 -588.20786719 389.73258823 -587.453125 386.5859375 C-569.03855726 311.10295028 -531.92249723 240.37880643 -482 181 C-481.34596191 180.21858643 -481.34596191 180.21858643 -480.67871094 179.42138672 C-469.58766414 166.19922496 -457.80273023 153.72477444 -445.625 141.5 C-444.79291016 140.6632373 -443.96082031 139.82647461 -443.10351562 138.96435547 C-438.22964062 134.10316269 -433.23557876 129.46754679 -428 125 C-426.8821558 124.02679545 -425.76494163 123.05286664 -424.6484375 122.078125 C-417.19497993 115.62191349 -409.60772541 109.38262315 -401.78759766 103.37548828 C-400.60963743 102.46909277 -399.43474345 101.55869625 -398.26318359 100.64404297 C-324.89960541 43.39713599 -234.29172749 6.61738921 0 0 Z " fill="#8F58FF" transform="translate(603,6)"/>
<path d="M0 0 C6.93 0 13.86 0 21 0 C21 26.07 21 52.14 21 79 C25.96107565 77.03006164 25.96107565 77.03006164 29.4609375 73.6484375 C30.4036853 72.63124634 30.4036853 72.63124634 31.36547852 71.59350586 C32.02862061 70.86139893 32.6917627 70.12929199 33.375 69.375 C34.80853022 67.82155596 36.24212546 66.26817191 37.67578125 64.71484375 C38.39846191 63.92577637 39.12114258 63.13670898 39.86572266 62.32373047 C43.06987293 58.8351578 46.31691224 55.38746661 49.5625 51.9375 C50.80500698 50.61227863 52.0471943 49.28675749 53.2890625 47.9609375 C54.20800293 46.98012207 54.20800293 46.98012207 55.14550781 45.97949219 C55.75749023 45.32625977 56.36947266 44.67302734 57 44 C59.47894779 41.35396147 61.95811546 38.70812929 64.4375 36.0625 C65.35644043 35.08168457 65.35644043 35.08168457 66.29394531 34.08105469 C69.57320492 30.58260697 72.8574266 27.08896007 76.1484375 23.6015625 C76.83695801 22.8698584 77.52547852 22.1381543 78.23486328 21.38427734 C79.61090884 19.92932342 80.99463583 18.48159302 82.38623047 17.04150391 C85.31981216 13.98500478 88.08956176 11.02965394 90.421875 7.484375 C92.81410062 4.07938233 94.38258036 2.09872327 98 0 C105.59497069 -1.27395911 113.3671746 -0.68235436 121 0 C120.68270819 5.62775473 118.36821354 8.22986318 114.375 11.875 C110.28294304 15.71842565 106.48279621 19.66561674 102.81689453 23.92041016 C99.72736523 27.4566384 96.48221994 30.84463947 93.25 34.25 C87.7052989 40.11554258 82.20994682 46.0180343 76.76953125 51.98046875 C72.97453517 56.13016326 69.12671336 60.23064351 65.28540039 64.33740234 C60.77391074 69.16318393 56.28702851 74.01102575 51.81860352 78.87670898 C49.59032496 81.29871692 47.35491501 83.70021678 45 86 C46.47486641 91.25606755 49.85950894 94.16260106 53.6875 97.8125 C54.96669463 99.05930176 56.24405952 100.30798374 57.51953125 101.55859375 C58.4314624 102.45167236 58.4314624 102.45167236 59.36181641 103.36279297 C61.86161665 105.86110302 64.14749494 108.51588599 66.4296875 111.2109375 C68.82826092 113.94364055 71.44145935 116.45005228 74.03125 119 C76.55425459 121.56305228 78.87562817 124.27345824 81.21875 127 C83.70257428 129.78885533 86.36711437 132.37686983 89.02734375 134.99609375 C91.57337829 137.58246151 93.92021557 140.3153528 96.28515625 143.06640625 C97.96004299 144.95494597 99.69947587 146.73155648 101.5 148.5 C103.93389732 150.89053167 106.21355559 153.35046262 108.4375 155.9375 C110.85617779 158.74576347 113.35899683 161.39970593 116 164 C118.72253107 166.70126129 121.40532152 169.42514842 124 172.25 C124.86625 173.18585938 124.86625 173.18585938 125.75 174.140625 C127 176 127 176 127 180 C105.54083484 182.59941434 105.54083484 182.59941434 98.3125 176.94140625 C94.45863374 173.29724874 91.19784269 169.21862623 88 165 C86.80355522 163.61464289 85.59823006 162.23676454 84.375 160.875 C83.87742187 160.28460937 83.37984375 159.69421875 82.8671875 159.0859375 C79.65444186 155.49680324 76.18159761 152.1627509 72.75732422 148.77685547 C69.31595516 145.35928153 66.07383799 141.85712883 62.9375 138.15625 C60.23969415 135.15385317 57.36956181 132.33739183 54.5 129.5 C50.47365768 125.51879605 46.61548665 121.50109434 42.95703125 117.17578125 C39.61108707 113.45583932 36.01624576 109.9773798 32.44140625 106.47851562 C30.00629977 104.08091671 27.9024078 101.85361171 26 99 C24.35 98.67 22.7 98.34 21 98 C21 125.06 21 152.12 21 180 C14.07 180 7.14 180 0 180 C0 120.6 0 61.2 0 0 Z " fill="#030303" transform="translate(415,457)"/>
<path d="M0 0 C2.47922936 2.47922936 3.0176296 4.51992886 4.13671875 7.84375 C4.54591553 9.05796631 4.9551123 10.27218262 5.37670898 11.52319336 C5.81446286 12.84852384 6.25137358 14.17413308 6.6875 15.5 C6.90898712 16.16838898 7.13047424 16.83677795 7.3586731 17.52542114 C11.77282788 30.87816471 15.62245242 44.34624501 19 58 C19.26417725 59.03374756 19.26417725 59.03374756 19.53369141 60.08837891 C25.44413055 83.57142338 25.48589343 108.8174415 25.3225708 132.86541748 C25.3090768 135.55808441 25.31442558 138.25058785 25.31943989 140.94327354 C25.34931302 162.27361428 24.43598238 183.43485919 20.90625 204.5 C20.21651082 208.66329053 19.5563596 212.83033151 18.90625 217 C14.8492716 242.63544794 9.0921017 267.33916693 1 292 C0.58166161 293.28497913 0.16336869 294.56997306 -0.25488281 295.85498047 C-6.19784603 314.04590984 -12.86930438 331.65227615 -21 349 C-21.48082031 350.03705078 -21.96164062 351.07410156 -22.45703125 352.14257812 C-41.92929656 394.04134425 -66.32039364 433.37783506 -96.59228516 468.36572266 C-98.10717483 470.12442391 -99.60724025 471.8950573 -101.10546875 473.66796875 C-105.717043 479.1126246 -110.29945233 484.48832095 -115.44140625 489.4453125 C-117.1419831 491.14162726 -118.690867 492.92306297 -120.25 494.75 C-126.52702863 502.01442639 -133.40971361 508.77098285 -140.71484375 514.99609375 C-143.20805579 517.18244892 -145.62181142 519.44103729 -148.0378418 521.71191406 C-154.14755538 527.45057926 -160.36280395 532.87216631 -167 538 C-168.0209375 538.81597656 -169.041875 539.63195312 -170.09375 540.47265625 C-243.22145557 598.9085741 -329.97408811 635.79537726 -425.75 650.3125 C-426.74499512 650.45969482 -427.73999023 650.60688965 -428.76513672 650.75854492 C-448.77378469 653.51219119 -468.72771782 654.32751073 -488.90722656 654.26074219 C-492.73258447 654.25004868 -496.55746891 654.26069616 -500.3828125 654.2734375 C-544.91186708 654.29823056 -544.91186708 654.29823056 -563.76269531 649.55859375 C-566.58270468 648.85451459 -569.4126175 648.19585246 -572.2421875 647.53125 C-589.7190032 643.35670001 -607.33206891 638.80509599 -624 632 C-620.62619251 630.87247393 -618.46388578 631.15074158 -615.046875 632.0390625 C-614.05204102 632.28744873 -613.05720703 632.53583496 -612.03222656 632.79174805 C-610.9490918 633.06672119 -609.86595703 633.34169434 -608.75 633.625 C-576.56141809 641.39066564 -543.08009905 645.28715589 -510 646 C-508.81599609 646.03254883 -507.63199219 646.06509766 -506.41210938 646.09863281 C-423.98067314 648.14392409 -341.9014794 629.46765006 -268 593 C-266.99678711 592.50532227 -265.99357422 592.01064453 -264.95996094 591.50097656 C-223.69408288 570.9572388 -185.55448026 544.31360139 -151.51171875 513.265625 C-150.12060711 512.01081201 -148.7228845 510.76283051 -147.29956055 509.54467773 C-141.40417984 504.48649322 -135.91673693 499.06520261 -130.4375 493.5625 C-129.53064453 492.65951172 -128.62378906 491.75652344 -127.68945312 490.82617188 C-122.58325071 485.71256381 -117.68051295 480.50461465 -113 475 C-112.03860514 473.89379654 -111.07639649 472.78829969 -110.11328125 471.68359375 C-66.63833519 421.42287568 -32.72917385 363.85595228 -11 301 C-10.58121582 299.79682129 -10.16243164 298.59364258 -9.73095703 297.35400391 C-2.78266333 277.19842722 2.52999677 256.83910596 7 236 C7.22413574 234.95569824 7.44827148 233.91139648 7.67919922 232.83544922 C22.02167222 164.75260801 21.09385773 90.62762423 5 23 C4.60908014 21.33730888 4.2184456 19.67455065 3.828125 18.01171875 C3.30991236 15.80611052 2.78971155 13.60129052 2.25585938 11.39941406 C1.34374143 7.6170356 0.59251785 3.84544086 0 0 Z " fill="#8F57FF" transform="translate(1016,387)"/>
<path d="M0 0 C43.89 0 87.78 0 133 0 C133 5.94 133 11.88 133 18 C114.52 18 96.04 18 77 18 C77 71.46 77 124.92 77 180 C70.07 180 63.14 180 56 180 C56 126.54 56 73.08 56 18 C37.52 18 19.04 18 0 18 C0 12.06 0 6.12 0 0 Z " fill="#03C2FF" transform="translate(553,457)"/>
<path d="M0 0 C2.06232699 2.06232699 2.56808484 3.15594031 3.5078125 5.84375 C3.77207031 6.59527344 4.03632812 7.34679687 4.30859375 8.12109375 C4.57800781 8.90613281 4.84742188 9.69117188 5.125 10.5 C5.40214844 11.28503906 5.67929687 12.07007813 5.96484375 12.87890625 C8 18.72371459 8 18.72371459 8 21 C7.01 21 6.02 21 5 21 C4.35060264 18.62592408 3.70539947 16.2508361 3.0625 13.875 C2.88009766 13.20984375 2.69769531 12.5446875 2.50976562 11.859375 C1.44917494 7.92554773 0.59637868 4.03026435 0 0 Z " fill="#8072FF" transform="translate(1016,387)"/>
<path d="M0 0 C0.99 0 1.98 0 3 0 C4.421875 1.6796875 4.421875 1.6796875 5.75 3.875 C6.19859375 4.59429688 6.6471875 5.31359375 7.109375 6.0546875 C7.40328125 6.69664062 7.6971875 7.33859375 8 8 C7.67 8.66 7.34 9.32 7 10 C5.83043409 8.52312468 4.66441854 7.04343707 3.5 5.5625 C2.8503125 4.73878906 2.200625 3.91507813 1.53125 3.06640625 C0 1 0 1 0 0 Z " fill="#E7F1FF" transform="translate(113,831)"/>
<path d="M0 0 C1.11375 0.598125 2.2275 1.19625 3.375 1.8125 C4.00148438 2.14894531 4.62796875 2.48539062 5.2734375 2.83203125 C7 4 7 4 9 7 C5.56072421 5.7580393 2.74792181 4.44259716 0 2 C0 1.34 0 0.68 0 0 Z " fill="#E3EEFF" transform="translate(831,113)"/>
</svg>
